<svg width="40" height="40" viewBox="0 0 40 40" fill="none" xmlns="http://www.w3.org/2000/svg">
<g clip-path="url(#clip0_12_482)">
<path d="M20.0214 4.93302C23.1471 8.9011 24.8156 13.7944 24.7551 18.8155V20.0141L25.7864 20.6416C27.1188 21.4482 28.1126 22.6993 28.5865 24.1669C28.1704 23.8605 27.7351 23.5803 27.2831 23.3278L24.5331 21.7838L24.039 24.9001C23.9962 25.1755 23.9388 25.4485 23.8671 25.718H16.1614C16.0468 25.3655 15.9537 25.0129 15.8678 24.6463L15.2447 21.8261L12.7096 23.2362C12.286 23.473 11.8771 23.7344 11.485 24.0188C11.9681 22.5682 12.9411 21.3242 14.2421 20.4935L15.2232 19.866V18.7521C15.2409 13.7513 16.9296 8.89523 20.0286 4.93302H20.0214ZM20.0286 2C19.8679 2.00039 19.7127 2.05799 19.5917 2.16216L19.5273 2.21857C15.3977 6.76564 13.1045 12.6454 13.082 18.745C11.3295 19.8643 10.0324 21.5543 9.41714 23.5197C8.8019 25.485 8.90771 27.6007 9.71607 29.4971C10.5676 27.6455 11.9912 26.1058 13.7838 25.0975C13.9636 25.8642 14.203 26.6161 14.4999 27.3467C14.5376 27.4871 14.6211 27.6114 14.7375 27.7006C14.854 27.7898 14.9969 27.8388 15.1445 27.8402H25.0846C25.2851 27.8402 25.4856 27.6498 25.5859 27.3537C25.8757 26.6592 26.0777 25.9322 26.1874 25.1892C27.9834 26.1932 29.4082 27.7342 30.2551 29.5887C31.1123 27.7017 31.245 25.5727 30.6286 23.5967C30.0123 21.6206 28.6887 19.9319 26.9036 18.8437C26.9744 12.7082 24.6934 6.77179 20.5156 2.21857C20.4533 2.15008 20.3772 2.09524 20.2921 2.05759C20.2069 2.01993 20.1147 2.00031 20.0214 2H20.0286Z" fill="#4EA8DE"/>
<path d="M20.0213 18.1598C19.4713 18.1598 18.9335 17.9995 18.4759 17.699C18.0182 17.3986 17.6612 16.9715 17.4497 16.4716C17.2382 15.9716 17.1818 15.4213 17.2876 14.8898C17.3933 14.3584 17.6565 13.8697 18.044 13.4853C18.4314 13.1009 18.9258 12.838 19.4648 12.7298C20.0038 12.6216 20.5632 12.6729 21.0726 12.8773C21.582 13.0816 22.0186 13.4298 22.3272 13.8781C22.6359 14.3263 22.8029 14.8545 22.8071 15.396C22.8157 15.7469 22.7539 16.0961 22.6254 16.4235C22.4969 16.751 22.304 17.0503 22.058 17.3043C21.8119 17.5583 21.5174 17.7622 21.1913 17.9041C20.8652 18.0461 20.5139 18.1234 20.1574 18.1316C20.1123 18.1387 20.0664 18.1387 20.0213 18.1316V18.1598Z" fill="#4EA8DE"/>
<path d="M23.8957 29.5958C23.7165 29.5901 23.538 29.6198 23.3706 29.683C23.2032 29.7462 23.0503 29.8416 22.9209 29.9638C22.7915 30.086 22.6881 30.2323 22.6169 30.3943C22.5458 30.5563 22.5082 30.7307 22.5063 30.9072V35.067C22.5063 35.4297 22.6527 35.7776 22.9133 36.0342C23.1738 36.2907 23.5272 36.4348 23.8957 36.4348C24.2641 36.4348 24.6175 36.2907 24.8781 36.0342C25.1386 35.7776 25.285 35.4297 25.285 35.067V30.9636C25.2907 30.7877 25.2608 30.6126 25.1971 30.4482C25.1333 30.2839 25.037 30.1337 24.9137 30.0064C24.7904 29.879 24.6425 29.7772 24.4788 29.7067C24.3151 29.6362 24.1388 29.5985 23.9601 29.5958H23.8957Z" fill="#5E60CE"/>
<path d="M16.1613 29.5958C15.9791 29.5863 15.7968 29.613 15.6252 29.6743C15.4537 29.7356 15.2964 29.8302 15.1628 29.9526C15.0291 30.0749 14.9219 30.2225 14.8474 30.3865C14.7728 30.5505 14.7326 30.7275 14.729 30.9072V35.067C14.729 35.4297 14.8754 35.7777 15.1359 36.0342C15.3965 36.2907 15.7499 36.4348 16.1183 36.4348C16.4868 36.4348 16.8402 36.2907 17.1007 36.0342C17.3613 35.7777 17.5076 35.4297 17.5076 35.067V30.9636C17.5134 30.7877 17.4835 30.6126 17.4197 30.4482C17.356 30.2839 17.2597 30.1337 17.1363 30.0064C17.013 29.879 16.8652 29.7772 16.7015 29.7067C16.5378 29.6362 16.3614 29.5985 16.1828 29.5958H16.1613Z" fill="#5E60CE"/>
<path d="M19.9211 29.5958C19.7424 29.592 19.5647 29.623 19.3981 29.6869C19.2316 29.7507 19.0795 29.8463 18.9504 29.9681C18.8214 30.0899 18.718 30.2355 18.6462 30.3966C18.5744 30.5577 18.5355 30.7312 18.5317 30.9072V36.6392C18.5317 37.002 18.6781 37.3499 18.9387 37.6064C19.1992 37.8629 19.5526 38.007 19.9211 38.007C20.2895 38.007 20.6429 37.8629 20.9035 37.6064C21.164 37.3499 21.3104 37.002 21.3104 36.6392V30.9988C21.3161 30.823 21.2862 30.6478 21.2225 30.4835C21.1587 30.3191 21.0624 30.1689 20.9391 30.0416C20.8158 29.9143 20.6679 29.8124 20.5042 29.7419C20.3405 29.6714 20.1642 29.6337 19.9855 29.631L19.9211 29.5958Z" fill="#5E60CE"/>
</g>
<defs>
<clipPath id="clip0_12_482">
<rect width="22" height="36" fill="white" transform="translate(9 2)"/>
</clipPath>
</defs>
</svg>
